# xmcd
#
# Track frame offsets:
#	150
#	12250
#	22419
#	35167
#	42587
#	49862
#	60512
#	68370
#	76927
#	92737
#	105827
#	117247
#	124810
#	134577
#	143872
#	157817
#
# Disc length: 2232 seconds
#
# Revision: 6
# Processed by: cddbd v1.5.1PL0 Copyright (c) Steve Scherf et al.
# Submitted via: dBpowerAMP V4.0
#
DISCID=d608b610
DTITLE=Beck - One Foot in the Grave
DYEAR=1994
DGENRE=Folk-Rock
TTITLE0=He's a Mighty Good Leader
TTITLE1=Sleeping Bag
TTITLE2=I et Lonesome
TTITLE3=Burnt Orange Peel
TTITLE4=Cyanide Breath Mint
TTITLE5=See Water
TTITLE6=Ziplock Bag
TTITLE7=Hollow Bag
TTITLE8=Forcefielf
TTITLE9=Fourteen Rivers, Fourteen Floods
TTITLE10=Asshole
TTITLE11=I've Seen the Land Beyond
TTITLE12=Outcome
TTITLE13=Girl Dreams
TTITLE14=Painted Eyelids
TTITLE15=Atmospheric Conditions
EXTD=
EXTT0=
EXTT1=
EXTT2=
EXTT3=
EXTT4=
EXTT5=
EXTT6=
EXTT7=
EXTT8=
EXTT9=
EXTT10=
EXTT11=
EXTT12=
EXTT13=
EXTT14=
EXTT15=
PLAYORDER=
